<?xml version="1.0" encoding="UTF-8"?>
<svg version="1.1" xmlns="http://www.w3.org/2000/svg" width="1067" height="1067">
<path d="M0 0 C0.89874816 0.00092179 1.79749632 0.00184359 2.72347927 0.00279331 C3.75138073 0.00141865 4.77928219 0.00004398 5.83833218 -0.00137234 C6.975527 0.00222294 8.11272182 0.00581821 9.2843771 0.00952244 C10.47445873 0.00937641 11.66454037 0.00923038 12.89068508 0.00907993 C16.16326569 0.00965889 19.43580402 0.01468801 22.70837617 0.02165389 C26.1250196 0.02788815 29.54166379 0.02849128 32.95831203 0.0296793 C39.43232563 0.0327924 45.90632242 0.0410055 52.3803286 0.05102879 C59.74901216 0.06219058 67.11769651 0.06770054 74.48638642 0.07272422 C89.64814464 0.08318813 104.80988712 0.10078717 119.97163296 0.12304783 C121.38405023 6.13044266 122.50867309 12.12137989 123.39042568 18.227952 C123.51935329 19.1018277 123.6482809 19.97570341 123.78111541 20.87606019 C124.21023775 23.79021183 124.63462984 26.70503197 125.0590353 29.619874 C125.3688263 31.73039545 125.67891236 33.84087361 125.9892683 35.95131207 C126.83718391 41.72291923 127.68099531 47.49512005 128.52415991 53.26742291 C129.42806258 59.4502282 130.33590927 65.63245438 131.24333096 71.814744 C132.80220122 82.43891378 134.35879641 93.06341407 135.91364956 103.68817234 C138.34799493 120.32261099 140.78577665 136.95654485 143.22456264 153.59033298 C143.37663335 154.62754101 143.37663335 154.62754101 143.53177619 155.68570274 C144.45698536 161.99612663 145.38221391 168.30654768 146.30752277 174.61695695 C147.34347386 181.681992 148.37925857 188.74705138 149.4146719 195.81216526 C154.77523026 232.38936918 160.15563016 268.96354558 165.56984234 305.53285503 C166.57380807 312.31400853 167.57697957 319.09527936 168.58000088 325.87657261 C169.22435533 330.232579 169.86874048 334.58858085 170.51313686 338.94458103 C170.6692899 340.00018329 170.82544294 341.05578555 170.98632789 342.14337575 C172.82412405 354.5661014 174.66506946 366.9883523 176.5106374 379.40992576 C177.65341339 387.10308602 178.79266522 394.79676286 179.92912471 402.49085873 C180.70106316 407.7158775 181.47711778 412.94026002 182.25660336 418.16415793 C182.72427011 421.3055989 183.18773364 424.44764868 183.64992356 427.58989966 C183.86147096 429.02235068 184.0747355 430.45454939 184.28989959 431.88646162 C184.58157938 433.82919968 184.86640069 435.77296375 185.15089321 437.71676731 C185.31061737 438.79322954 185.47034153 439.86969177 185.63490582 440.97877407 C185.99931997 444.38158226 186.02822636 447.70335583 185.97163296 451.12304783 C188.58875582 448.76033388 190.14485045 446.2886893 191.83491421 443.20507908 C192.38469936 442.21056736 192.93448452 441.21605564 193.50092983 440.1914072 C194.08938686 439.11697361 194.67784389 438.04254002 195.28413296 436.93554783 C196.54924049 434.64938374 197.81621495 432.36425191 199.08491421 430.08007908 C199.5698988 429.20647236 199.5698988 429.20647236 200.06468105 428.31521702 C203.28246879 422.53446531 206.61771467 416.8255155 209.97163296 411.12304783 C214.73658078 403.00925446 219.39592269 394.84502722 223.97163296 386.62304783 C229.10794685 377.39373381 234.3737583 368.2506781 239.72163296 359.14257908 C243.89407255 352.01776593 247.9565854 344.83758642 251.97163296 337.62304783 C257.10794685 328.39373381 262.3737583 319.2506781 267.72163296 310.14257908 C271.89407255 303.01776593 275.9565854 295.83758642 279.97163296 288.62304783 C285.10794685 279.39373381 290.3737583 270.2506781 295.72163296 261.14257908 C299.89407255 254.01776593 303.9565854 246.83758642 307.97163296 239.62304783 C313.10794685 230.39373381 318.3737583 221.2506781 323.72163296 212.14257908 C328.50121399 203.98101772 333.12512159 195.738598 337.72383022 187.47412205 C341.6997893 180.34676516 345.77327293 173.2836569 349.90913296 166.24804783 C354.88896691 157.77339768 359.72252399 149.22904606 364.47163296 140.62304783 C369.77375618 131.01491641 375.21124161 121.50125851 380.77241421 112.04101658 C384.93063564 104.95143635 388.97529426 97.80498688 392.97163296 90.62304783 C398.1078846 81.39370012 403.3737592 72.25067658 408.72163296 63.14257908 C412.89407351 56.0177643 416.95652877 48.83755667 420.97163296 41.62304783 C427.79972827 29.35585155 434.82661624 17.20830485 441.97163296 5.12304783 C442.2949258 4.26471851 442.61821865 3.4063892 442.95130825 2.5220499 C444.97163296 0.12304783 444.97163296 0.12304783 446.87582016 -0.36314869 C449.49384151 -0.58247256 452.0730303 -0.63257537 454.70039272 -0.63500881 C455.69913921 -0.65501446 456.6978857 -0.6750201 457.72689724 -0.69563198 C461.03920443 -0.75346531 464.35027459 -0.77284512 467.66303921 -0.78710842 C469.96650516 -0.80825274 472.2699669 -0.82986052 474.57342434 -0.8519125 C479.40978868 -0.8909275 484.24571656 -0.90813811 489.08222866 -0.91332912 C495.26512165 -0.92397233 501.44416844 -1.01282181 507.62600708 -1.12158966 C512.3883997 -1.19240331 517.14987496 -1.20869702 521.91274738 -1.2101717 C524.1905527 -1.21973715 526.46836665 -1.24894982 528.7456522 -1.29853916 C547.32886512 -1.66992765 547.32886512 -1.66992765 552.66520596 2.63284397 C556.57483439 6.62281596 558.91450679 10.20594061 559.08444118 15.90879917 C558.06970526 24.02497553 558.06970526 24.02497553 555.97163296 26.12304783 C554.34785127 26.37345285 552.71524887 26.56713607 551.08100796 26.73632908 C527.08378946 29.11255428 527.08378946 29.11255428 507.22163296 41.87304783 C498.16993037 54.94772934 495.19410233 70.18275032 492.31709194 85.55932713 C492.19119588 86.23121236 492.06529981 86.9030976 491.93558872 87.59534299 C487.98590863 108.78815851 484.76576926 130.10722724 481.44553232 151.40545726 C480.47957302 157.59473494 479.50798018 163.78312862 478.53709316 169.97163486 C476.88408013 180.5129305 475.23445064 191.05475002 473.58744717 201.59698582 C471.88191844 212.51378369 470.17447602 223.43027934 468.46446133 234.34637547 C468.35815292 235.02501609 468.25184452 235.70365672 468.14231465 236.40286222 C467.60490411 239.83346175 467.06745836 243.26405575 466.52999699 246.69464731 C462.91290733 269.78269192 459.29979035 292.87135609 455.68940639 315.96045017 C451.87991587 340.32266243 448.06417934 364.68388924 444.24393559 389.04441738 C442.24602552 401.78487483 440.24960479 414.52556582 438.25321776 427.26626199 C437.64534555 431.14556678 437.037385 435.02485767 436.4292326 438.90411854 C435.17807594 446.88502894 433.92751213 454.86603107 432.67921638 462.84738952 C432.18018969 466.03800206 431.68066971 469.2285358 431.18031597 472.41894054 C430.65021543 475.79946062 430.12162932 479.18021399 429.59345913 482.56103611 C429.4415968 483.52721269 429.28973448 484.49338926 429.13327026 485.48884392 C427.63843817 495.0798736 426.74177502 504.40434108 426.65913296 514.12304783 C426.63012905 515.26000095 426.60112514 516.39695408 426.57124233 517.56836033 C426.52165333 524.14462458 426.63876381 529.87071764 430.97163296 535.12304783 C435.56026438 538.64797678 439.15254313 539.51022119 444.83808804 539.97949314 C452.26402415 540.60505358 457.78873201 541.64778597 463.28413296 546.87304783 C465.98743851 550.53358106 466.98578885 552.41123412 466.89424038 557.01464939 C466.68634602 558.35140599 466.45521329 559.68473611 466.20210171 561.01367283 C466.09007412 561.70090427 465.97804653 562.38813572 465.86262417 563.09619236 C465.58593901 564.77528435 465.2816011 566.44978027 464.97163296 568.12304783 C444.54407747 568.40371812 424.11691467 568.61514779 403.68782902 568.74479389 C394.2015327 568.80659913 384.71643627 568.89081402 375.2309103 569.02832127 C366.96050681 569.14815601 358.69097239 569.22539863 350.41972482 569.25210977 C346.04201811 569.26771871 341.66679689 569.30423025 337.28988934 569.39180851 C333.16372035 569.47369538 329.04104223 569.49830743 324.91413784 569.48034 C323.40556587 569.48362294 321.89686893 569.50725458 320.3890028 569.55351353 C314.30835813 569.73079879 308.56795123 569.85302515 303.77108288 565.63242435 C297.22032213 558.7707638 297.22032213 558.7707638 296.78361535 554.12128305 C296.93237872 549.96716829 297.78528358 546.09320714 298.97163296 542.12304783 C300.07450649 542.0557346 300.07450649 542.0557346 301.1996603 541.9870615 C304.58287045 541.77365084 307.96462596 541.54221713 311.34663296 541.31054783 C312.50292202 541.24029392 313.65921108 541.17004002 314.85053921 541.0976572 C327.31316201 540.21752847 339.27735047 537.44738596 348.22163296 528.06054783 C359.5233887 513.41601926 362.36456866 492.6756861 365.23896694 474.91821384 C365.53252625 473.14956075 365.82673299 471.38101503 366.12151909 469.61256599 C367.08809155 463.78537803 368.03138882 457.95453338 368.97163296 452.12304783 C369.21732517 450.60323818 369.21732517 450.60323818 369.46798086 449.05272532 C372.04563541 433.10380702 374.57541114 417.14740449 377.0955832 401.18931746 C378.01856295 395.34821714 378.94396117 389.5075001 379.86930304 383.66677362 C381.71252441 372.03197475 383.55362673 360.39684167 385.39326382 348.76147556 C387.14034929 337.71151858 388.88823267 326.66168843 390.63740444 315.6120615 C390.74426207 314.9370321 390.85111971 314.26200271 390.96121545 313.56651787 C392.03536929 306.78109326 393.10965477 299.9956895 394.18395824 293.21028858 C394.71730925 289.84157983 395.25064599 286.47286883 395.78398037 283.10415745 C395.88912474 282.44004508 395.9942691 281.77593272 396.10259967 281.09169574 C397.46905788 272.46075054 398.83476468 263.82968687 400.19973648 255.19850647 C404.05676164 230.80949138 407.91787189 206.42118983 411.81664336 182.03880823 C412.32953067 178.8309293 412.84205818 175.62299309 413.35446358 172.41503716 C413.68260966 170.36088331 414.01076408 168.3067308 414.33892727 166.25257969 C414.49728894 165.26128884 414.65565061 164.26999798 414.81881112 163.24866802 C415.7348945 157.5164633 416.6538751 151.78473252 417.57512903 146.05335665 C418.12786637 142.6109734 418.67815583 139.16820217 419.22777963 135.72532058 C419.47921192 134.1539468 419.73174107 132.58274806 419.98546004 131.01174188 C420.32741922 128.89385316 420.6656113 126.77539636 421.0028677 124.65675449 C421.19144061 123.48217969 421.38001352 122.30760489 421.57430077 121.0974369 C422.05990515 117.96238606 422.05990515 117.96238606 421.97163296 114.12304783 C412.5424837 130.20439045 403.23836955 146.35353134 394.00825405 162.54980564 C390.64511244 168.45106472 387.27785228 174.34997132 383.90913296 180.24804783 C383.41198788 181.11858799 383.41198788 181.11858799 382.90479946 182.00671482 C377.50234205 191.46504255 372.06567755 200.90333166 366.61592007 210.33447361 C362.04436378 218.25067658 357.50207357 226.18328096 352.97163296 234.12304783 C347.21578752 244.21038256 341.42699059 254.27819736 335.61616421 264.33398533 C331.04458673 272.25038574 326.50216363 280.18312313 321.97163296 288.12304783 C316.21659838 298.2089615 310.42917448 308.27568249 304.61836147 318.3295908 C299.68114285 326.87793968 294.78480359 335.44922167 289.8960104 344.02530003 C285.26287608 352.15001701 280.57778508 360.24249927 275.84663296 368.31054783 C270.42190318 377.56350101 265.15488246 386.89702965 259.93550014 396.2670908 C256.34816872 402.69666148 252.68817973 409.07243376 248.92842007 415.4023447 C244.97257515 422.0791705 241.127535 428.81863592 237.28413296 435.56054783 C232.03768779 444.76229304 226.77227005 453.95234929 221.47163296 463.12304783 C216.27920548 472.10844274 211.11482182 481.1094167 205.97163296 490.12304783 C200.22245188 500.19870302 194.44131972 510.2554211 188.6359396 520.29882908 C185.30508829 526.06543967 181.98659023 531.83880783 178.68647671 537.62304783 C178.1490736 538.56482883 178.1490736 538.56482883 177.60081387 539.52563572 C175.87369118 542.55319572 174.14814544 545.58164141 172.42475796 548.61132908 C171.18603186 550.78484642 169.92492105 552.94579719 168.63911343 555.09179783 C166.89900856 558.04389509 166.89900856 558.04389509 165.94868374 561.15429783 C164.63822878 564.57047697 163.93411475 565.90930293 160.97163296 568.12304783 C157.21390273 568.65125551 153.51229037 568.51541102 149.72724819 568.38476658 C148.69559284 568.36587376 147.66393749 568.34698093 146.60101986 568.3275156 C144.05685803 568.27821353 141.51476347 568.20938135 138.97163296 568.12304783 C132.91999126 528.06443135 127.00625512 487.98736896 121.19385438 447.89340449 C120.06975267 440.13982148 118.94388511 432.38649509 117.81797661 424.63317428 C115.79259229 410.68553845 113.7684063 396.73772901 111.74507046 382.78979588 C108.87641324 363.01464744 106.00625713 343.23971676 103.13569546 323.4648447 C102.89965975 321.83881929 102.66362425 320.21279386 102.42758894 318.58676839 C101.02037232 308.89258652 101.02037232 308.89258652 99.61313748 299.19840729 C98.34335425 290.45111616 97.07369813 281.70380659 95.80419137 272.95647532 C87.87803948 218.34270285 79.93319855 163.73167025 71.97163296 109.12304783 C68.02495016 122.76361326 64.23685867 136.43659367 60.61225796 150.16601658 C60.11003388 152.06207099 59.60762219 153.95807571 59.10504055 155.85403538 C58.03444696 159.89429442 56.96509805 163.93487991 55.89677334 167.97573948 C54.18074146 174.46639767 52.46176204 180.95627317 50.74238491 187.44604588 C48.33753341 196.52399789 45.93377068 205.60223747 43.53071499 214.68066502 C38.87112893 232.28300224 34.20351495 249.88320879 29.5341711 267.48295975 C27.94775474 273.46250575 26.36179946 279.44217379 24.77619839 285.42193604 C18.92048916 307.50450494 13.05240657 329.58372946 7.16647434 351.65826321 C6.17374317 355.38173396 5.18132583 359.1052882 4.18902493 362.82887363 C3.86336701 364.05087562 3.5377091 365.2728776 3.20218277 366.53190994 C2.5478733 368.98716354 1.89357575 371.44242031 1.23929024 373.89768028 C-0.34544594 379.84376345 -1.9311865 385.78957518 -3.51924229 391.73477268 C-11.78704301 422.64024605 -11.78704301 422.64024605 -19.74321079 453.62695408 C-20.05742985 454.87413212 -20.3716489 456.12131016 -20.69538975 457.40628147 C-23.85520662 470.13606544 -26.34732704 482.99754957 -27.02836704 496.12304783 C-27.08121861 496.96351658 -27.13407017 497.80398533 -27.18852329 498.66992283 C-27.58934721 510.4506607 -25.97180589 523.93109581 -18.02836704 533.12304783 C-11.68112378 538.97330336 -2.29925153 541.19057984 6.15913296 541.12304783 C11.58103497 542.54518606 13.96118785 545.46883323 17.31147671 549.85351658 C20.08477841 555.31528959 19.35985567 560.30450941 17.97163296 566.12304783 C17.64163296 566.78304783 17.31163296 567.44304783 16.97163296 568.12304783 C-2.02167179 568.40378026 -21.01455374 568.61517737 -40.00950527 568.74479389 C-48.82997594 568.80658651 -57.64915521 568.89077537 -66.46879673 569.02832127 C-74.15908605 569.14819694 -81.84843999 569.22540784 -89.53963768 569.25210977 C-93.61002558 569.26771243 -97.6777385 569.30417809 -101.74726582 569.39180851 C-105.58459048 569.47376312 -109.4181613 569.49829567 -113.25627804 569.48034 C-114.65843593 569.48362014 -116.06072958 569.50721517 -117.46212673 569.55351353 C-123.40436162 569.74006681 -128.57625584 569.72417417 -133.16731739 565.63242435 C-139.78329761 558.67206558 -139.78329761 558.67206558 -140.2208221 554.12128305 C-140.0710974 549.96824884 -139.21439435 546.09212931 -138.02836704 542.12304783 C-136.87981236 542.02507908 -135.73125767 541.92711033 -134.54789829 541.82617283 C-114.69667521 539.98368762 -99.29779707 534.8051015 -86.02836704 519.12304783 C-75.38146007 504.78521311 -68.65349911 488.30732198 -63.16508579 471.42773533 C-62.78761487 470.28194319 -62.78761487 470.28194319 -62.40251827 469.11300373 C-56.73219578 451.8641066 -52.04424267 434.38275019 -47.50428486 416.80886555 C-46.35040757 412.35485581 -45.18165678 407.90475026 -44.01396275 403.45434666 C-42.53144221 397.80126313 -41.04984112 392.14794964 -39.57376194 386.49318027 C-34.53835931 367.20533304 -29.41295621 347.94173034 -24.27964878 328.67974949 C-21.91103618 319.79127812 -19.54692361 310.90160938 -17.18226337 302.01208591 C-16.387345 299.02389907 -15.59229447 296.03574741 -14.79719639 293.04760838 C-11.36884478 280.16311513 -7.94217429 267.27817577 -4.51668072 254.3929224 C-3.73115433 251.43818377 -2.9455607 248.48346302 -2.15994358 245.52874851 C-1.63683601 243.56132112 -1.11372912 241.59389355 -0.5906229 239.6264658 C-0.33202456 238.65386814 -0.07342623 237.68127048 0.19300842 236.67920017 C1.74526939 230.84085101 3.29700185 225.00236166 4.84839249 219.16378117 C10.18654219 199.07522832 15.53830737 178.99044654 20.92079639 158.91372395 C22.59256544 152.67633636 24.26204334 146.43833497 25.93165588 140.20036983 C27.51382429 134.29058527 29.10019759 128.38195078 30.68984032 122.47417259 C31.66976687 118.8284984 32.64576065 115.18177945 33.62074757 111.53478146 C34.06894331 109.86155742 34.5187603 108.18876657 34.97042179 106.51647472 C40.37710831 86.57553137 40.37710831 86.57553137 42.97163296 66.12304783 C43.01288296 65.3779697 43.05413296 64.63289158 43.09663296 63.86523533 C43.35652485 54.54161364 41.92950592 45.60976057 35.50678921 38.50195408 C29.91347521 33.22449781 23.34529448 30.65710289 15.83100796 29.37695408 C2.67974721 27.06318615 2.67974721 27.06318615 -2.21586704 21.24804783 C-5.81293504 15.33286935 -5.2111747 10.49241256 -3.84477329 3.89648533 C-2.74683065 0.16663234 -2.74683065 0.16663234 0 0 Z " fill="#B79B65" transform="translate(158.0283670425415,213.87695217132568)"/>
<path d="M0 0 C20.68830085 -0.28065955 41.37628667 -0.49209514 62.0661068 -0.62174606 C71.67346307 -0.68355342 81.27963474 -0.76777264 90.88623047 -0.90527344 C99.26210927 -1.02510135 107.63713007 -1.10234926 116.01384223 -1.12906194 C120.44742634 -1.14467193 124.87855657 -1.18119111 129.31135178 -1.26876068 C133.49003892 -1.35063628 137.66527912 -1.37526158 141.84469223 -1.35729218 C143.37261243 -1.36057558 144.90065582 -1.38421334 146.42787933 -1.4304657 C152.55192139 -1.60673083 158.37400907 -1.75608348 163.21175003 2.49062347 C169.7507144 9.33449598 169.7507144 9.33449598 170.1872108 14.00176477 C170.03862227 18.15607625 169.18640811 22.02964416 168 26 C166.87464844 26.03738281 165.74929688 26.07476562 164.58984375 26.11328125 C149.08932804 26.73139997 133.07275796 27.60112261 120.875 38.3125 C112.92712622 46.94801679 108.96492982 58.33663495 105.62670898 69.38085938 C105.32595931 70.37568581 105.02520964 71.37051224 104.71534634 72.39548492 C101.17751217 84.4021862 98.60692923 96.60131878 96.03515625 108.84375 C95.4788637 111.45481189 94.92178815 114.06569589 94.36378479 116.6763916 C93.02400698 122.95369196 91.69492225 129.23320704 90.36986095 135.51362848 C89.30667846 140.55158251 88.23918605 145.58860568 87.16864014 150.625 C87.01638424 151.34129387 86.86412835 152.05758774 86.70725864 152.79558748 C86.39788419 154.25096048 86.08850122 155.70633168 85.77910984 157.16170108 C82.17158101 174.13494873 78.58507427 191.11261853 75.00156623 208.09095079 C73.03511087 217.40740666 71.06633003 226.72337094 69.09741211 236.03930664 C68.91586818 236.8982895 68.73432426 237.75727235 68.547279 238.64228499 C67.81141863 242.12401577 67.07554889 245.60574457 66.33965021 249.08746725 C65.2332154 254.32230008 64.12692281 259.55716293 63.02073652 264.79204828 C56.74542997 294.48862307 50.45418258 324.18179796 44.15262043 353.87281168 C42.11074632 363.49354738 40.07140556 373.11481611 38.03422797 382.73654735 C36.77989582 388.66042248 35.52481761 394.58413951 34.26953125 400.5078125 C34.00124952 401.77387392 33.7329678 403.03993534 33.45655632 404.34436226 C29.98782076 420.70712913 26.48364896 437.06180425 22.94236565 453.40901756 C21.63866449 459.43418795 20.34240942 465.4609651 19.04645252 471.48780537 C17.88426067 476.88753954 16.70902386 482.28418674 15.52229023 487.67857742 C14.81657657 490.90107719 14.12351233 494.12620059 13.43395424 497.35219193 C13.12207099 498.79854642 12.80499638 500.24379497 12.48180199 501.68766403 C9.34122998 515.73345117 9.34122998 515.73345117 10 530 C12.94177582 533.03874079 15.92223345 533.19548876 19.95988464 533.3742218 C22.01120786 533.3889986 24.06269085 533.38714682 26.11401367 533.37231445 C27.79812096 533.37779045 27.79812096 533.37779045 29.51625061 533.38337708 C33.23364334 533.39149054 36.95060086 533.37785416 40.66796875 533.36328125 C43.2632904 533.36276227 45.85861245 533.36328144 48.45393372 533.36479187 C53.90384227 533.36470208 59.3535926 533.35460849 64.8034668 533.33618164 C71.05792283 533.31515207 77.312195 533.31147457 83.56667918 533.3177436 C89.62095507 533.32349648 95.67515743 533.31760688 101.72942543 533.30657005 C104.28513649 533.30275314 106.84085299 533.30155506 109.39656639 533.3031559 C135.24785327 533.38605535 135.24785327 533.38605535 160.625 528.875 C161.40367432 528.66327148 162.18234863 528.45154297 162.98461914 528.23339844 C189.1456278 520.67146037 208.2391642 501.38093553 224 480 C224.48082031 479.35820801 224.96164062 478.71641602 225.45703125 478.05517578 C233.49029559 467.32080415 240.9043224 456.2039218 248.17626953 444.94628906 C249.5202546 442.86717866 250.86969686 440.79158172 252.22558594 438.72021484 C253.30473322 437.06585889 254.36941371 435.40178564 255.40722656 433.72119141 C257.2845726 430.81004159 258.54798097 429.18434296 261.796875 427.859375 C267.04821957 427.66488076 269.86549868 427.98984862 273.88671875 431.5703125 C274.76675191 432.64823845 275.61723039 433.75092683 276.4375 434.875 C276.84516602 435.40963867 277.25283203 435.94427734 277.67285156 436.49511719 C279.34181907 439.11474316 280.17926139 441.01834348 279.60929871 444.13952637 C279.35304214 444.91526001 279.09678558 445.69099365 278.83276367 446.49023438 C278.402033 447.81654373 278.402033 447.81654373 277.96260071 449.16964722 C277.48611336 450.57067184 277.48611336 450.57067184 277 452 C276.69221115 452.92426788 276.3844223 453.84853577 276.06730652 454.80081177 C275.03704596 457.86494724 273.98579069 460.92124067 272.9296875 463.9765625 C272.53576813 465.12071625 272.14184875 466.26487 271.73599243 467.44369507 C270.67174113 470.53223036 269.6055224 473.62007559 268.53793335 476.7074585 C267.87203542 478.63357507 267.20681005 480.55992277 266.54174805 482.48632812 C260.25927647 500.68038719 253.91884204 518.85353954 247.5 537 C247.1456488 538.00347473 246.79129761 539.00694946 246.4262085 540.04083252 C245.42203124 542.8822731 244.4147699 545.72259826 243.40625 548.5625 C243.11851715 549.37673431 242.8307843 550.19096863 242.53433228 551.02987671 C241.06609296 555.15014303 239.52551351 559.23018572 237.8939209 563.28881836 C237.53798607 564.17524521 237.18205124 565.06167206 236.81533051 565.97496033 C236.41174191 566.97735497 236.41174191 566.97735497 236 568 C192.47424629 568.27470464 148.94858438 568.48613484 105.42213459 568.61278395 C100.28272372 568.62779232 95.14331457 568.6433242 90.00390625 568.65917969 C88.98074849 568.66232741 87.95759073 568.66547514 86.90342818 568.66871825 C70.33944423 568.72092531 53.77596036 568.81553466 37.21227302 568.92583355 C20.21460941 569.03807776 3.21720758 569.10471059 -13.78081143 569.12906194 C-24.26868102 569.14552273 -34.75513712 569.19749554 -45.24257155 569.2949976 C-52.43561269 569.35846238 -59.62792386 569.37759453 -66.82122461 569.36201653 C-70.97117868 569.354334 -75.11866466 569.36604822 -79.26817894 569.4304657 C-83.07201125 569.48908419 -86.87172957 569.49169335 -90.67575563 569.45078674 C-92.69469156 569.44335302 -94.71358224 569.49493735 -96.73180854 569.54897571 C-102.30842119 569.43928771 -105.68389504 569.05524954 -110.1124537 565.50444269 C-116.75707701 558.50308241 -116.75707701 558.50308241 -117.19423591 553.99859008 C-117.04412366 549.84585733 -116.18593605 545.96877608 -115 542 C-113.87464844 541.96261719 -112.74929688 541.92523437 -111.58984375 541.88671875 C-95.53509267 541.24649861 -79.60670434 540.07372909 -67 529 C-58.47947451 518.14231093 -54.20042391 505.3620943 -50.68579102 492.22363281 C-50.38079209 491.084697 -50.07579317 489.94576118 -49.76155186 488.77231216 C-46.42340388 476.09883215 -43.7017478 463.31114217 -41.02734375 450.484375 C-40.47047515 447.84113528 -39.91301579 445.19802653 -39.35481262 442.55506897 C-38.16342332 436.90866183 -36.97716191 431.26119851 -35.79455566 425.61294556 C-34.06105345 417.33389138 -32.31893056 409.05666805 -30.57470918 400.77986634 C-27.896944 388.07277487 -25.22352411 375.36477524 -22.55336738 362.65608299 C-18.48214561 343.27969552 -14.39518007 323.90665833 -10.30078125 304.53515625 C-10.06557723 303.42234036 -10.06557723 303.42234036 -9.8256216 302.28704333 C-8.40612945 295.57114167 -6.98651353 288.85526618 -5.56671143 282.13943005 C-3.53599048 272.53348509 -1.50718891 262.92713641 0.52034092 253.32051742 C6.32288604 225.82814236 12.13428668 198.33774025 17.98656023 170.85590202 C19.02797258 165.96541608 20.06861563 161.07476701 21.10873413 156.18400574 C21.32482273 155.16798622 21.32482273 155.16798622 21.54527676 154.13144106 C22.11946668 151.4316628 22.69365103 148.73188337 23.26775002 146.03208578 C25.04008199 137.69772007 26.81691001 129.36432833 28.59829617 121.03189278 C29.60005293 116.34130667 30.59772138 111.64985763 31.59433174 106.95817566 C32.04965912 104.81891876 32.50669202 102.68002394 32.96568108 100.54154968 C38.5043288 76.15273507 38.5043288 76.15273507 40.4375 51.3125 C40.45748047 50.51134766 40.47746094 49.71019531 40.49804688 48.88476562 C40.49340831 43.19324094 39.51412408 38.58394055 36 34 C30.50813856 28.86685922 24.77920871 28.35089098 17.5625 27.875 C10.51095356 27.13476548 5.93208136 26.35211138 1.125 20.9375 C-1.9385878 16.23626263 -2.78796885 12.77147119 -1.6328125 7.2890625 C-1.42398438 6.53367188 -1.21515625 5.77828125 -1 5 C-0.66004292 3.33467178 -0.32588664 1.66813872 0 0 Z " fill="#B79B65" transform="translate(757,214)"/>
</svg>
